<?xml version="1.0" encoding="UTF-8" standalone="no"?> <svg width="64" height="64" viewBox="0 0 64 64" fill="none" xmlns="http://www.w3.org/2000/svg">
<path d="M10.7101 20.15C12.5401 20.83 17.7101 22.42 26.4301 22.42C35.1501 22.42 40.3201 20.83 42.1501 20.15C42.3431 20.0799 42.5099 19.9521 42.6278 19.7839C42.7457 19.6158 42.8089 19.4154 42.8089 19.21C42.8089 19.0046 42.7457 18.8042 42.6278 18.6361C42.5099 18.4679 42.3431 18.3401 42.1501 18.27C40.3201 17.59 35.1501 16 26.4301 16C17.7101 16 12.5401 17.59 10.7101 18.27C10.517 18.3401 10.3502 18.4679 10.2324 18.6361C10.1145 18.8042 10.0513 19.0046 10.0513 19.21C10.0513 19.4154 10.1145 19.6158 10.2324 19.7839C10.3502 19.9521 10.517 20.0799 10.7101 20.15V20.15ZM26.4301 18C30.4067 17.9506 34.3759 18.3566 38.2601 19.21C34.375 20.0584 30.4065 20.4643 26.4301 20.42C22.4537 20.4643 18.4851 20.0584 14.6001 19.21C18.4843 18.3566 22.4535 17.9506 26.4301 18V18Z" fill="black"/>
<path d="M52.42 25.42H49.86V19.21C49.866 19.1569 49.866 19.1032 49.86 19.05C49.62 13.82 37.68 11.05 26.44 11.05C16 11 5 13.42 3.26 17.92C3.09785 18.0983 3.00552 18.3291 3 18.57V29.62C3 34.85 14.6 37.72 25.76 37.83H52.42C53.8685 37.8297 55.2759 38.3117 56.42 39.2C55.2759 40.0883 53.8685 40.5704 52.42 40.57H11.86C11.5948 40.57 11.3404 40.6754 11.1529 40.8629C10.9654 41.0504 10.86 41.3048 10.86 41.57V52C10.86 52.2652 10.9654 52.5196 11.1529 52.7071C11.3404 52.8947 11.5948 53 11.86 53H52.42C54.6947 52.9974 56.8756 52.0926 58.4841 50.4841C60.0925 48.8756 60.9974 46.6948 61 44.42V34C60.9974 31.7253 60.0925 29.5445 58.4841 27.936C56.8756 26.3275 54.6947 25.4227 52.42 25.42V25.42ZM42 25.42C44.0901 24.872 46.0624 23.9469 47.82 22.69V25.42H42ZM26.43 13C38.69 13 47.86 16.28 47.86 19.21C47.86 22.14 38.69 25.42 26.43 25.42C14.17 25.42 5 22.14 5 19.21C5 16.28 14.17 13 26.43 13ZM53.8 36V34.42C53.8 34.1548 53.6946 33.9004 53.5071 33.7129C53.3196 33.5254 53.0652 33.42 52.8 33.42C52.5348 33.42 52.2804 33.5254 52.0929 33.7129C51.9054 33.9004 51.8 34.1548 51.8 34.42V35.84H45.48V32C45.48 31.7348 45.3746 31.4804 45.1871 31.2929C44.9996 31.1054 44.7452 31 44.48 31C44.2148 31 43.9604 31.1054 43.7729 31.2929C43.5854 31.4804 43.48 31.7348 43.48 32V35.84H37.16V34.42C37.16 34.1548 37.0546 33.9004 36.8671 33.7129C36.6796 33.5254 36.4252 33.42 36.16 33.42C35.8948 33.42 35.6404 33.5254 35.4529 33.7129C35.2654 33.9004 35.16 34.1548 35.16 34.42V35.84H28.84V32C28.84 31.7348 28.7346 31.4804 28.5471 31.2929C28.3596 31.1054 28.1052 31 27.84 31C27.5748 31 27.3204 31.1054 27.1329 31.2929C26.9454 31.4804 26.84 31.7348 26.84 32V35.84H26.43C24.36 35.84 22.43 35.74 20.52 35.57V34.42C20.52 34.1548 20.4146 33.9004 20.2271 33.7129C20.0396 33.5254 19.7852 33.42 19.52 33.42C19.2548 33.42 19.0004 33.5254 18.8129 33.7129C18.6254 33.9004 18.52 34.1548 18.52 34.42V35.35C16.3873 35.0969 14.2753 34.6926 12.2 34.14V32C12.2 31.7348 12.0946 31.4804 11.9071 31.2929C11.7196 31.1054 11.4652 31 11.2 31C10.9348 31 10.6804 31.1054 10.4929 31.2929C10.3054 31.4804 10.2 31.7348 10.2 32V33.52C6.94 32.38 5 31 5 29.63V22.69C8.8 25.69 17.44 27.34 25.83 27.41H52.42C53.6223 27.41 54.8016 27.7394 55.8299 28.3624C56.8582 28.9854 57.6961 29.8783 58.2526 30.944C58.8092 32.0097 59.0631 33.2076 58.9869 34.4074C58.9106 35.6073 58.507 36.7634 57.82 37.75C56.6578 36.8223 55.2709 36.2186 53.8 36V36ZM53 51V49.58C53 49.3148 52.8946 49.0604 52.7071 48.8729C52.5196 48.6854 52.2652 48.58 52 48.58C51.7348 48.58 51.4804 48.6854 51.2929 48.8729C51.1054 49.0604 51 49.3148 51 49.58V51H44.68V47.16C44.68 46.8948 44.5746 46.6404 44.3871 46.4529C44.1996 46.2654 43.9452 46.16 43.68 46.16C43.4148 46.16 43.1604 46.2654 42.9729 46.4529C42.7854 46.6404 42.68 46.8948 42.68 47.16V51H36.36V49.58C36.36 49.3148 36.2546 49.0604 36.0671 48.8729C35.8796 48.6854 35.6252 48.58 35.36 48.58C35.0948 48.58 34.8404 48.6854 34.6529 48.8729C34.4654 49.0604 34.36 49.3148 34.36 49.58V51H28V47.16C28 46.8948 27.8946 46.6404 27.7071 46.4529C27.5196 46.2654 27.2652 46.16 27 46.16C26.7348 46.16 26.4804 46.2654 26.2929 46.4529C26.1054 46.6404 26 46.8948 26 47.16V51H19.72V49.58C19.72 49.3148 19.6146 49.0604 19.4271 48.8729C19.2396 48.6854 18.9852 48.58 18.72 48.58C18.4548 48.58 18.2004 48.6854 18.0129 48.8729C17.8254 49.0604 17.72 49.3148 17.72 49.58V51H12.86V42.58H52.42C54.3873 42.5803 56.2945 41.9022 57.82 40.66C58.4854 41.6065 58.8894 42.7117 58.9914 43.8642C59.0934 45.0166 58.8897 46.1756 58.4009 47.2242C57.912 48.2728 57.1554 49.174 56.2072 49.8369C55.259 50.4998 54.1527 50.901 53 51V51Z" fill="black"/>
</svg>
